<?xml version="1.0" standalone="no"?>
<!DOCTYPE svg PUBLIC "-//W3C//DTD SVG 20010904//EN"
 "http://www.w3.org/TR/2001/REC-SVG-20010904/DTD/svg10.dtd">
<svg version="1.0" xmlns="http://www.w3.org/2000/svg"
 width="384.000000pt" height="384.000000pt" viewBox="0 0 384.000000 384.000000"
 preserveAspectRatio="xMidYMid meet">
<metadata>
Created by potrace 1.10, written by Peter Selinger 2001-2011
</metadata>
<g transform="translate(0.000000,384.000000) scale(0.100000,-0.100000)"
fill="#000000" stroke="none">
<path d="M773 3198 c-61 -64 -65 -97 -66 -453 0 -263 3 -332 16 -385 18 -72
22 -185 7 -195 -17 -11 -80 -125 -80 -146 0 -11 -6 -32 -14 -47 -7 -15 -17
-58 -20 -97 -12 -118 11 -108 -212 -99 -228 8 -208 21 -212 -139 -3 -77 0
-106 10 -114 7 -6 83 -14 168 -18 229 -11 303 -18 307 -32 5 -13 -26 -32 -72
-44 -16 -4 -57 -18 -90 -29 -33 -12 -73 -26 -90 -30 -16 -5 -68 -22 -115 -38
-85 -29 -85 -29 -82 -61 4 -39 57 -200 70 -213 7 -7 22 -6 44 1 18 6 61 20 95
31 33 11 72 24 85 29 12 4 48 16 78 26 30 9 64 21 75 26 45 19 152 51 173 51
13 0 38 -13 55 -29 65 -60 197 -146 297 -195 152 -73 493 -138 721 -138 246 0
513 60 709 159 94 47 97 49 197 123 50 38 98 68 108 68 20 0 125 -29 140 -39
6 -4 37 -15 70 -25 33 -10 74 -23 90 -30 17 -7 70 -25 118 -41 76 -25 89 -27
101 -14 18 18 80 215 73 231 -2 7 -31 21 -63 32 -33 10 -75 24 -94 31 -19 8
-60 21 -90 31 -30 9 -71 22 -90 30 -19 7 -45 16 -57 19 -22 6 -32 38 -15 48 4
3 95 10 202 16 107 7 205 14 218 17 21 4 22 8 22 115 0 103 -1 111 -25 134
-28 29 -38 29 -210 14 -142 -12 -139 -14 -150 94 -10 112 -44 198 -116 304
-32 46 -34 61 -19 160 45 299 52 497 24 664 -28 168 -62 228 -132 229 -62 0
-239 -105 -347 -206 -16 -16 -108 -102 -203 -192 l-172 -164 -53 6 c-28 3
-138 9 -244 12 -161 5 -204 4 -269 -11 l-78 -17 -107 108 c-150 153 -214 213
-289 269 -36 27 -69 55 -73 62 -4 7 -13 13 -19 13 -5 0 -27 13 -47 29 -67 53
-145 91 -187 91 -32 0 -46 -6 -71 -32z m610 -1195 c43 -22 74 -62 88 -112 11
-39 10 -51 -7 -100 -64 -187 -334 -133 -334 66 0 69 33 115 111 152 48 23 90
21 142 -6z m1181 2 c19 -8 47 -31 63 -52 24 -31 28 -46 28 -99 0 -54 -4 -67
-31 -101 -41 -52 -108 -86 -157 -79 -119 14 -189 148 -135 256 18 36 34 51 78
72 59 29 89 30 154 3z"/>
</g>
</svg>
